# xmcd
# 
# Track frame offsets:
#     150
#     17485
#     31502
#     48630
#     61234
#     78249
#     100546
#     116956
#     138557
#     164793
#     168500
#     183477
#     220091
#     245011
# 
# Disc length: 3940
# 
# Revision: 6
# Processed by: cddbd v1.5.2PL0 Copyright (c) Steve Scherf et al.
# Submitted via: fre:ac v1.0.31
# 
DISCID=bd0f620e
DTITLE=George Harrison - George Harrison The Apple Years Disc 4
DYEAR=1970
DGENRE=Rock/Pop
TTITLE0=Beware Of Darkness
TTITLE1=Apple Scruffs
TTITLE2=Ballad Of Sir Frankie Crisp (Let It Roll)
TTITLE3=Awaiting On You All
TTITLE4=All Things Must Pass
TTITLE5=I Dig Love
TTITLE6=Art Of Dying
TTITLE7=Isn't It A Pity (Version Two)
TTITLE8=Hear Me Lord
TTITLE9=It's Johnny's Birthday
TTITLE10=Plug Me In
TTITLE11=I Remember Jeep
TTITLE12=Thanks For The Pepperoni
TTITLE13=Out Of The Blue
EXTD=
EXTT0=
EXTT1=
EXTT2=
EXTT3=
EXTT4=
EXTT5=
EXTT6=
EXTT7=
EXTT8=
EXTT9=
EXTT10=
EXTT11=
EXTT12=
EXTT13=
PLAYORDER=
